<?xml version="1.0" encoding="utf-8"?>
<!-- Generator: Adobe Illustrator 19.0.0, SVG Export Plug-In . SVG Version: 6.00 Build 0)  -->
<svg version="1.1" id="Layer_1" xmlns="http://www.w3.org/2000/svg" xmlns:xlink="http://www.w3.org/1999/xlink" x="0px" y="0px"
	 width="484.8px" height="484.8px" viewBox="0 0 484.8 484.8" style="enable-background:new 0 0 484.8 484.8;" xml:space="preserve"
	>
<g id="XMLID_198_">
	<path id="XMLID_201_" d="M250.5,288.6L250.5,288.6c-3.6-3.3-8.6-6.9-15.4-6.9s-11.8,3.6-15.3,6.8l-0.1,0.1
		c-10.1,9.4-31,28.1-31.3,28.3c-8.5,7.7-9.2,20.9-1.4,29.4c4,4.3,9.5,6.7,15.4,6.7c4.3,0,8.5-1.4,12-3.9v45.9
		c0,11.4,9.3,20.7,20.7,20.7s20.7-9.3,20.7-20.7v-45.8c3.5,2.5,7.7,3.9,12,3.9c5.9,0,11.5-2.5,15.4-6.8c7.7-8.5,7-21.6-1.6-29.4
		C281.5,316.7,260.6,298,250.5,288.6z M272.9,336.9L272.9,336.9c-1.3,1.4-3.1,2.2-5.1,2.2c-1.2,0-2.9-0.3-4.5-1.7
		c-2.5-2.3-9.9-8.9-9.9-8.9l-11.7-10.6v77.2c0,3.7-3,6.7-6.7,6.7s-6.7-3-6.7-6.7v-77.2l-11.7,10.6c0,0-7.3,6.6-9.8,8.9
		c-1.3,1.2-2.9,1.8-4.5,1.8c-1.9,0-3.8-0.8-5.1-2.2c-1.2-1.3-1.8-3-1.7-4.8c0.1-1.8,0.9-3.5,2.2-4.7c0.2-0.2,21.2-18.9,31.4-28.4
		c2.5-2.3,4.3-3.2,5.9-3.2s3.4,0.9,5.9,3.2c10.2,9.5,31.2,28.2,31.3,28.4c1.4,1.2,2.2,2.9,2.3,4.7
		C274.7,333.8,274.1,335.6,272.9,336.9z"/>
	<path id="XMLID_204_" d="M408.5,316.9c-0.2-0.2-21.2-18.9-31.2-28.3l-0.1-0.1c-3.5-3.2-8.5-6.8-15.3-6.8c-6.9,0-11.8,3.6-15.3,6.8
		l-0.1,0.1c-10.1,9.4-31,28.1-31.3,28.3c-4.1,3.7-6.5,8.8-6.8,14.3c-0.3,5.6,1.6,10.9,5.4,15.1c4,4.3,9.5,6.7,15.4,6.7
		c4.3,0,8.5-1.4,12-3.9v45.9c0,11.4,9.3,20.7,20.7,20.7s20.7-9.3,20.7-20.7v-45.8c3.5,2.5,7.7,3.9,12,3.9c5.9,0,11.5-2.5,15.4-6.8
		c3.7-4.1,5.6-9.4,5.3-15C415.1,325.8,412.7,320.7,408.5,316.9z M399.7,336.9L399.7,336.9c-1.3,1.4-3.1,2.2-5.1,2.2
		c-1.2,0-2.9-0.3-4.5-1.7c-2.5-2.3-9.9-8.9-9.9-8.9l-11.7-10.6v77.2c0,3.7-3,6.7-6.7,6.7s-6.7-3-6.7-6.7v-77.2l-11.7,10.6
		c0,0-7.3,6.6-9.8,8.9c-1.3,1.2-2.9,1.8-4.5,1.8c-1.9,0-3.8-0.8-5.1-2.2c-1.2-1.3-1.8-3-1.7-4.8c0.1-1.8,0.9-3.5,2.2-4.7
		c0.2-0.2,21.2-18.9,31.4-28.4c2.5-2.3,4.3-3.2,5.9-3.2s3.4,0.9,5.9,3.2c10.2,9.5,31.2,28.2,31.4,28.4c1.4,1.2,2.2,2.9,2.3,4.7
		C401.5,333.8,400.9,335.6,399.7,336.9z"/>
	<path id="XMLID_277_" d="M440.2,0H268v82.1c0,3-2.5,5.5-5.5,5.5h-40.4c-3,0-5.5-2.5-5.5-5.5V0H44.5C20,0,0,20,0,44.5v395.8
		c0,24.5,20,44.5,44.5,44.5h395.8c24.5,0,44.5-20,44.5-44.5V44.4C484.7,19.9,464.7,0,440.2,0z M470.8,440.3
		c0,16.8-13.7,30.5-30.5,30.5H44.5c-16.8,0-30.5-13.7-30.5-30.5V44.5C14,27.7,27.7,14,44.5,14h158.2v68.1c0,10.7,8.7,19.5,19.5,19.5
		h40.4c10.7,0,19.5-8.7,19.5-19.5V14h158.2c16.8,0,30.5,13.7,30.6,30.5V440.3z"/>
</g>
</svg>
