<?xml version="1.0" encoding="utf-8"?>
<!-- Generator: Adobe Illustrator 19.0.0, SVG Export Plug-In . SVG Version: 6.00 Build 0)  -->
<svg version="1.1" id="Layer_1" xmlns="http://www.w3.org/2000/svg" xmlns:xlink="http://www.w3.org/1999/xlink" x="0px" y="0px"
	 width="504px" height="495.7px" viewBox="0 0 504 495.7" style="enable-background:new 0 0 504 495.7;" xml:space="preserve">
<g id="XMLID_90_">
	<path id="XMLID_120_" d="M400.9,231h-42.7v21.4c0,1.8-1.4,3.2-3.2,3.2h-13.6c-1.8,0-3.2-1.4-3.2-3.2V231h-42.7
		c-7.1,0-12.9,5.8-12.9,12.9v105.5c0,7.1,5.8,12.9,12.9,12.9h105.5c7.1,0,12.9-5.8,12.9-12.9V243.9C413.9,236.7,408.1,231,400.9,231
		z M399.9,348.3H296.5V245h27.6v7.4c0,9.5,7.7,17.2,17.2,17.2H355c9.5,0,17.2-7.7,17.2-17.2V245h27.6V348.3z"/>
	<path id="XMLID_132_" d="M208.6,231h-42.7v21.4c0,1.8-1.4,3.2-3.2,3.2H149c-1.8,0-3.2-1.4-3.2-3.2V231h-42.7
		c-7.1,0-12.9,5.8-12.9,12.9v105.5c0,7.1,5.8,12.9,12.9,12.9h105.5c7.1,0,12.9-5.8,12.9-12.9V243.9C221.5,236.7,215.7,231,208.6,231
		z M207.5,348.3H104.1V245h27.6v7.4c0,9.5,7.7,17.2,17.2,17.2h13.6c9.5,0,17.2-7.7,17.2-17.2V245h27.6V348.3z"/>
	<path id="XMLID_135_" d="M295.4,138.3h105.5c7.1,0,12.9-5.8,12.9-12.9V19.9c0-7.1-5.8-12.9-12.9-12.9h-42.7v21.4
		c0,1.8-1.4,3.2-3.2,3.2h-13.6c-1.8,0-3.2-1.4-3.2-3.2V7h-42.7c-7.1,0-12.9,5.8-12.9,12.9v105.5
		C282.5,132.6,288.3,138.3,295.4,138.3z M296.5,21h27.6v7.4c0,9.5,7.7,17.2,17.2,17.2H355c9.5,0,17.2-7.7,17.2-17.2V21h27.6v103.3
		H296.5V21z"/>
	<path id="XMLID_138_" d="M103.1,138.3h105.5c7.1,0,12.9-5.8,12.9-12.9V19.9c0-7.1-5.8-12.9-12.9-12.9h-42.7v21.4
		c0,1.8-1.4,3.2-3.2,3.2H149c-1.8,0-3.2-1.4-3.2-3.2V7h-42.7c-7.1,0-12.9,5.8-12.9,12.9v105.5C90.1,132.6,95.9,138.3,103.1,138.3z
		 M104.1,21h27.6v7.4c0,9.5,7.7,17.2,17.2,17.2h13.6c9.5,0,17.2-7.7,17.2-17.2V21h27.6v103.3H104.1V21z"/>
	<path id="XMLID_141_" d="M46.3,399.4h411.4V193.8H46.3V399.4z M60.3,207.8h383.4l0,177.6H60.3V207.8z"/>
	<path id="XMLID_144_" d="M492.7,0H455c-6.2,0-11.3,5.1-11.3,11.3v150.2H60.3V11.3C60.3,5.1,55.2,0,49,0H11.3C5.1,0,0,5.1,0,11.3
		v473.1c0,6.2,5.1,11.3,11.3,11.3H49c6.2,0,11.3-5.1,11.3-11.3v-52.7h383.4v52.7c0,6.2,5.1,11.3,11.3,11.3h37.7
		c6.2,0,11.3-5.1,11.3-11.3V11.3C504,5.1,498.9,0,492.7,0z M490,481.7h-32.3v-64H46.3v64H14V14h32.3v161.5h411.4V14H490V481.7z"/>
	<circle id="XMLID_145_" cx="473.7" cy="185.6" r="9"/>
	<circle id="XMLID_146_" cx="473.7" cy="409.6" r="9"/>
	<circle id="XMLID_147_" cx="30.7" cy="185.6" r="9"/>
	<circle id="XMLID_148_" cx="30.7" cy="409.6" r="9"/>
</g>
</svg>
