<?xml version="1.0" encoding="utf-8"?>
<!-- Generator: Adobe Illustrator 19.0.0, SVG Export Plug-In . SVG Version: 6.00 Build 0)  -->
<svg version="1.1" id="Layer_1" xmlns="http://www.w3.org/2000/svg" xmlns:xlink="http://www.w3.org/1999/xlink" x="0px" y="0px"
	 width="765.7px" height="494.9px" viewBox="0 0 765.7 494.9" style="enable-background:new 0 0 765.7 494.9;" xml:space="preserve"
	>
<g id="XMLID_5_">
	<path id="XMLID_14_" d="M419.3,454.9h202.2v-66.5H419.3V454.9z M433.3,402.4h174.2v38.5H433.3V402.4z"/>
	<path id="XMLID_17_" d="M753.2,402.3c6.9,0,12.5-5.6,12.5-12.5v-29.1c0-6.9-5.6-12.5-12.5-12.5H12.5c-6.9,0-12.5,5.6-12.5,12.5
		v29.1c0,6.9,5.6,12.5,12.5,12.5h41.9v38.5H12.5c-6.9,0-12.5,5.6-12.5,12.5v29.1c0,6.9,5.6,12.5,12.5,12.5h740.7
		c6.9,0,12.5-5.6,12.5-12.5v-29.1c0-6.9-5.6-12.5-12.5-12.5h-41.9v-38.5H753.2z M751.7,454.7v26.2H14v-26.2h54.5v-66.5H14v-26.2
		h737.7v26.2h-54.5v66.5H751.7z"/>
	<path id="XMLID_27_" d="M144.1,454.7h199.6v-66.5H144.1V454.7z M158.1,402.3h171.6v38.5H158.1V402.3z"/>
	<path id="XMLID_30_" d="M444.8,303h243c16.5,0,30-13.5,30-30V30c0-16.5-13.5-30-30-30H579.4v53.2c0,0.4-0.2,0.7-0.7,0.7h-24.9
		c-0.4,0-0.7-0.2-0.7-0.7V0H444.8c-16.5,0-30,13.5-30,30v243C414.8,289.6,428.3,303,444.8,303z M428.8,30c0-8.8,7.2-16,16-16h94.4
		v39.2c0,8.2,6.4,14.7,14.7,14.7h24.9c8.2,0,14.7-6.4,14.7-14.7V14h94.4c8.8,0,16,7.2,16,16v243c0,8.8-7.2,16-16,16h-243
		c-8.8,0-16-7.2-16-16V30z"/>
	<path id="XMLID_33_" d="M77.9,303h243c16.5,0,30-13.5,30-30V30c0-16.5-13.5-30-30-30H212.5v53.2c0,0.4-0.2,0.7-0.7,0.7h-24.9
		c-0.4,0-0.7-0.2-0.7-0.7V0H77.9c-16.5,0-30,13.5-30,30v243C47.9,289.6,61.3,303,77.9,303z M61.9,30c0-8.8,7.2-16,16-16h94.4v39.2
		c0,8.2,6.4,14.7,14.7,14.7h24.9c8.2,0,14.7-6.4,14.7-14.7V14h94.4c8.8,0,16,7.2,16,16v243c0,8.8-7.2,16-16,16h-243
		c-8.8,0-16-7.2-16-16V30z"/>
	<path id="XMLID_34_" d="M544.1,215.2c2,0,4-0.6,5.7-2.1c1.5-1.4,6-5.5,6-5.5v37.7c0,4.6,3.8,8.4,8.4,8.4s8.4-3.8,8.4-8.4v-37.7
		c0,0,4.4,4.1,6,5.5c1.7,1.4,3.7,2.1,5.7,2.1c2.3,0,4.6-0.9,6.3-2.8c3.1-3.5,2.8-8.7-0.6-12c0,0-12.9-11.5-19.2-17.3
		c-1.8-1.7-4-3.1-6.6-3.1c-2.8,0-4.8,1.4-6.6,3.1c-6.3,5.8-19.2,17.3-19.2,17.3c-3.5,3.2-3.7,8.4-0.6,12
		C539.5,214.3,541.8,215.2,544.1,215.2z"/>
	<path id="XMLID_35_" d="M621.9,215.2c2,0,4-0.6,5.7-2.1c1.5-1.4,6-5.5,6-5.5v37.7c0,4.6,3.8,8.4,8.4,8.4s8.4-3.8,8.4-8.4v-37.7
		c0,0,4.4,4.1,6,5.5c1.7,1.4,3.7,2.1,5.7,2.1c2.3,0,4.6-0.9,6.3-2.8c3.2-3.5,2.9-8.7-0.6-12c0,0-12.9-11.5-19.2-17.3
		c-1.8-1.7-4-3.1-6.6-3.1c-2.8,0-4.8,1.4-6.6,3.1c-6.3,5.8-19.2,17.3-19.2,17.3c-3.5,3.2-3.7,8.4-0.6,12
		C617.3,214.3,619.6,215.2,621.9,215.2z"/>
	<path id="XMLID_36_" d="M176.9,215.2c2,0,4-0.6,5.7-2.1c1.5-1.4,6-5.5,6-5.5v37.7c0,4.6,3.8,8.4,8.4,8.4s8.4-3.8,8.4-8.4v-37.7
		c0,0,4.4,4.1,6,5.5c1.7,1.4,3.7,2.1,5.7,2.1c2.3,0,4.6-0.9,6.3-2.8c3.2-3.5,2.9-8.7-0.6-12c0,0-12.9-11.5-19.2-17.3
		c-1.8-1.7-4-3.1-6.6-3.1c-2.8,0-4.8,1.4-6.6,3.1c-6.3,5.8-19.2,17.3-19.2,17.3c-3.5,3.2-3.7,8.4-0.6,12
		C172.3,214.3,174.6,215.2,176.9,215.2z"/>
	<path id="XMLID_37_" d="M254.9,215.2c2,0,4-0.6,5.7-2.1c1.5-1.4,6-5.5,6-5.5v37.7c0,4.6,3.8,8.4,8.4,8.4s8.4-3.8,8.4-8.4v-37.7
		c0,0,4.4,4.1,6,5.5c1.7,1.4,3.7,2.1,5.7,2.1c2.3,0,4.6-0.9,6.3-2.8c3.1-3.5,2.8-8.7-0.6-12c0,0-12.9-11.5-19.2-17.3
		c-1.8-1.7-4-3.1-6.6-3.1c-2.8,0-4.8,1.4-6.6,3.1c-6.3,5.8-19.2,17.3-19.2,17.3c-3.5,3.2-3.7,8.4-0.6,12
		C250.3,214.3,252.6,215.2,254.9,215.2z"/>
</g>
</svg>
