<?xml version="1.0" encoding="UTF-8"?><!DOCTYPE svg PUBLIC "-//W3C//DTD SVG 1.1//EN" "http://www.w3.org/Graphics/SVG/1.1/DTD/svg11.dtd"><svg xmlns="http://www.w3.org/2000/svg"><symbol id="icon-box" viewBox="0 0 484.8 484.8">
    <path d="M250.5 288.6c-3.6-3.3-8.6-6.9-15.4-6.9s-11.8 3.6-15.3 6.8l-.1.1c-10.1 9.4-31 28.1-31.3 28.3-8.5 7.7-9.2 20.9-1.4 29.4 4 4.3 9.5 6.7 15.4 6.7 4.3 0 8.5-1.4 12-3.9V395c0 11.4 9.3 20.7 20.7 20.7s20.7-9.3 20.7-20.7v-45.8c3.5 2.5 7.7 3.9 12 3.9 5.9 0 11.5-2.5 15.4-6.8 7.7-8.5 7-21.6-1.6-29.4-.1-.2-21-18.9-31.1-28.3zm22.4 48.3c-1.3 1.4-3.1 2.2-5.1 2.2-1.2 0-2.9-.3-4.5-1.7-2.5-2.3-9.9-8.9-9.9-8.9l-11.7-10.6v77.2a6.7 6.7 0 0 1-13.4 0v-77.2l-11.7 10.6s-7.3 6.6-9.8 8.9c-1.3 1.2-2.9 1.8-4.5 1.8-1.9 0-3.8-.8-5.1-2.2-1.2-1.3-1.8-3-1.7-4.8.1-1.8.9-3.5 2.2-4.7.2-.2 21.2-18.9 31.4-28.4 2.5-2.3 4.3-3.2 5.9-3.2s3.4.9 5.9 3.2c10.2 9.5 31.2 28.2 31.3 28.4 1.4 1.2 2.2 2.9 2.3 4.7.2 1.6-.4 3.4-1.6 4.7z"/>
    <path d="M408.5 316.9c-.2-.2-21.2-18.9-31.2-28.3l-.1-.1c-3.5-3.2-8.5-6.8-15.3-6.8-6.9 0-11.8 3.6-15.3 6.8l-.1.1c-10.1 9.4-31 28.1-31.3 28.3-4.1 3.7-6.5 8.8-6.8 14.3-.3 5.6 1.6 10.9 5.4 15.1 4 4.3 9.5 6.7 15.4 6.7 4.3 0 8.5-1.4 12-3.9V395c0 11.4 9.3 20.7 20.7 20.7s20.7-9.3 20.7-20.7v-45.8c3.5 2.5 7.7 3.9 12 3.9 5.9 0 11.5-2.5 15.4-6.8 3.7-4.1 5.6-9.4 5.3-15-.2-5.5-2.6-10.6-6.8-14.4zm-8.8 20c-1.3 1.4-3.1 2.2-5.1 2.2-1.2 0-2.9-.3-4.5-1.7-2.5-2.3-9.9-8.9-9.9-8.9l-11.7-10.6v77.2a6.7 6.7 0 0 1-13.4 0v-77.2l-11.7 10.6s-7.3 6.6-9.8 8.9c-1.3 1.2-2.9 1.8-4.5 1.8-1.9 0-3.8-.8-5.1-2.2-1.2-1.3-1.8-3-1.7-4.8.1-1.8.9-3.5 2.2-4.7.2-.2 21.2-18.9 31.4-28.4 2.5-2.3 4.3-3.2 5.9-3.2s3.4.9 5.9 3.2c10.2 9.5 31.2 28.2 31.4 28.4 1.4 1.2 2.2 2.9 2.3 4.7.1 1.6-.5 3.4-1.7 4.7z"/>
    <path d="M440.2 0H268v82.1c0 3-2.5 5.5-5.5 5.5h-40.4c-3 0-5.5-2.5-5.5-5.5V0H44.5C20 0 0 20 0 44.5v395.8c0 24.5 20 44.5 44.5 44.5h395.8c24.5 0 44.5-20 44.5-44.5V44.4C484.7 19.9 464.7 0 440.2 0zm30.6 440.3c0 16.8-13.7 30.5-30.5 30.5H44.5c-16.8 0-30.5-13.7-30.5-30.5V44.5C14 27.7 27.7 14 44.5 14h158.2v68.1c0 10.7 8.7 19.5 19.5 19.5h40.4c10.7 0 19.5-8.7 19.5-19.5V14h158.2c16.8 0 30.5 13.7 30.6 30.5v395.8z"/>
</symbol><symbol id="icon-cell" viewBox="0 0 504 495.7">
    <path d="M400.9 231h-42.7v21.4c0 1.8-1.4 3.2-3.2 3.2h-13.6c-1.8 0-3.2-1.4-3.2-3.2V231h-42.7c-7.1 0-12.9 5.8-12.9 12.9v105.5c0 7.1 5.8 12.9 12.9 12.9H401c7.1 0 12.9-5.8 12.9-12.9V243.9c0-7.2-5.8-12.9-13-12.9zm-1 117.3H296.5V245h27.6v7.4c0 9.5 7.7 17.2 17.2 17.2H355c9.5 0 17.2-7.7 17.2-17.2V245h27.6v103.3z"/>
    <path d="M208.6 231h-42.7v21.4c0 1.8-1.4 3.2-3.2 3.2H149c-1.8 0-3.2-1.4-3.2-3.2V231h-42.7c-7.1 0-12.9 5.8-12.9 12.9v105.5c0 7.1 5.8 12.9 12.9 12.9h105.5c7.1 0 12.9-5.8 12.9-12.9V243.9c0-7.2-5.8-12.9-12.9-12.9zm-1.1 117.3H104.1V245h27.6v7.4c0 9.5 7.7 17.2 17.2 17.2h13.6c9.5 0 17.2-7.7 17.2-17.2V245h27.6v103.3z"/>
    <path d="M295.4 138.3h105.5c7.1 0 12.9-5.8 12.9-12.9V19.9c0-7.1-5.8-12.9-12.9-12.9h-42.7v21.4c0 1.8-1.4 3.2-3.2 3.2h-13.6c-1.8 0-3.2-1.4-3.2-3.2V7h-42.7c-7.1 0-12.9 5.8-12.9 12.9v105.5c-.1 7.2 5.7 12.9 12.8 12.9zM296.5 21h27.6v7.4c0 9.5 7.7 17.2 17.2 17.2H355c9.5 0 17.2-7.7 17.2-17.2V21h27.6v103.3H296.5V21z"/>
    <path d="M103.1 138.3h105.5c7.1 0 12.9-5.8 12.9-12.9V19.9c0-7.1-5.8-12.9-12.9-12.9h-42.7v21.4c0 1.8-1.4 3.2-3.2 3.2H149c-1.8 0-3.2-1.4-3.2-3.2V7h-42.7C96 7 90.2 12.8 90.2 19.9v105.5c-.1 7.2 5.7 12.9 12.9 12.9zm1-117.3h27.6v7.4c0 9.5 7.7 17.2 17.2 17.2h13.6c9.5 0 17.2-7.7 17.2-17.2V21h27.6v103.3H104.1V21z"/>
    <path d="M46.3 399.4h411.4V193.8H46.3v205.6zm14-191.6h383.4v177.6H60.3V207.8z"/>
    <path d="M492.7 0H455c-6.2 0-11.3 5.1-11.3 11.3v150.2H60.3V11.3C60.3 5.1 55.2 0 49 0H11.3C5.1 0 0 5.1 0 11.3v473.1c0 6.2 5.1 11.3 11.3 11.3H49c6.2 0 11.3-5.1 11.3-11.3v-52.7h383.4v52.7c0 6.2 5.1 11.3 11.3 11.3h37.7c6.2 0 11.3-5.1 11.3-11.3V11.3C504 5.1 498.9 0 492.7 0zM490 481.7h-32.3v-64H46.3v64H14V14h32.3v161.5h411.4V14H490v467.7z"/>
    <circle cx="473.7" cy="185.6" r="9"/>
    <circle cx="473.7" cy="409.6" r="9"/>
    <circle cx="30.7" cy="185.6" r="9"/>
    <circle cx="30.7" cy="409.6" r="9"/>
</symbol><symbol id="icon-elephant" viewBox="0 0 547.6 478.9">
    <path d="M547.4 136.8C547.4 61.2 486.2 0 410.7 0h-43.3v136.8h-.2c0 83.1-67.3 150.4-150.4 150.4v.2H102.6c-11.3 0-20.5 9.2-20.5 20.5v137c0 12.8-5.2 25.1-14.3 34.1h136.9v-34.1h.2c0-18.9 15.3-34.1 34.1-34.1v-.2h137.5v.2c18.9 0 34.1 15.3 34.1 34.1V479h118.7V352h18.3V136.8h-.2zM533.6 338h-4.3c-7.7 0-14 6.3-14 14v112.9h-90.7v-20.1c0-25.6-20.1-46.6-45.4-48.1-.9-.2-1.8-.3-2.8-.3H239c-.9 0-1.9.1-2.8.3-24.3 1.4-43.9 20.9-45.3 45.3-.2.9-.3 1.8-.3 2.8v20.1H92.7c2.2-6.4 3.4-13.3 3.4-20.1v-137c0-3.6 2.9-6.5 6.5-6.5h114.1c.8 0 1.6-.1 2.4-.2 21.3-.3 42-4.6 61.6-12.9s37.2-20.1 52.3-35.2c30.5-30.5 47.5-70.8 48.1-113.8.1-.8.2-1.6.2-2.4V14h29.3c32.8 0 63.6 12.8 86.8 36 23.2 23.2 36 54 36 86.8 0 .8.1 1.6.2 2.3V338z"/>
    <path d="M68.5 307.9c0-18.9 15.3-34.1 34.1-34.1h114.1v-.2c75.5 0 136.8-61.2 136.8-136.8h.2V0H137C61.4 0 .2 61.2.2 136.8H0V479h34.3c18.9 0 34.1-15.3 34.1-34.1v-137zm-14 0v137c0 11.1-9 20.1-20.1 20.1H14V139.1c.1-.8.2-1.5.2-2.3 0-32.8 12.8-63.6 36-86.8 23.2-23.2 54-36 86.8-36h202.7v120.4c-.1.8-.2 1.5-.2 2.3 0 32.8-12.8 63.6-36 86.8-23.2 23.2-54 36-86.8 36-.8 0-1.6.1-2.3.2H102.6c-26.5 0-48.1 21.6-48.1 48.2z"/>
    <circle cx="71.5" cy="183.2" r="12.2"/>
</symbol><symbol id="icon-next" viewBox="0 0 477.175 477.175">
    <path d="M360.731 229.075l-225.1-225.1c-5.3-5.3-13.8-5.3-19.1 0s-5.3 13.8 0 19.1l215.5 215.5-215.5 215.5c-5.3 5.3-5.3 13.8 0 19.1 2.6 2.6 6.1 4 9.5 4 3.4 0 6.9-1.3 9.5-4l225.1-225.1c5.3-5.2 5.3-13.8.1-19z"/>
</symbol><symbol id="icon-pallet" viewBox="0 0 765.7 494.9">
    <path d="M419.3 454.9h202.2v-66.5H419.3v66.5zm14-52.5h174.2v38.5H433.3v-38.5z"/>
    <path d="M753.2 402.3c6.9 0 12.5-5.6 12.5-12.5v-29.1c0-6.9-5.6-12.5-12.5-12.5H12.5c-6.9 0-12.5 5.6-12.5 12.5v29.1c0 6.9 5.6 12.5 12.5 12.5h41.9v38.5H12.5c-6.9 0-12.5 5.6-12.5 12.5v29.1c0 6.9 5.6 12.5 12.5 12.5h740.7c6.9 0 12.5-5.6 12.5-12.5v-29.1c0-6.9-5.6-12.5-12.5-12.5h-41.9v-38.5h41.9zm-1.5 52.4v26.2H14v-26.2h54.5v-66.5H14V362h737.7v26.2h-54.5v66.5h54.5z"/>
    <path d="M144.1 454.7h199.6v-66.5H144.1v66.5zm14-52.4h171.6v38.5H158.1v-38.5z"/>
    <path d="M444.8 303h243c16.5 0 30-13.5 30-30V30c0-16.5-13.5-30-30-30H579.4v53.2c0 .4-.2.7-.7.7h-24.9c-.4 0-.7-.2-.7-.7V0H444.8c-16.5 0-30 13.5-30 30v243c0 16.6 13.5 30 30 30zm-16-273c0-8.8 7.2-16 16-16h94.4v39.2c0 8.2 6.4 14.7 14.7 14.7h24.9c8.2 0 14.7-6.4 14.7-14.7V14h94.4c8.8 0 16 7.2 16 16v243c0 8.8-7.2 16-16 16h-243c-8.8 0-16-7.2-16-16V30z"/>
    <path d="M77.9 303h243c16.5 0 30-13.5 30-30V30c0-16.5-13.5-30-30-30H212.5v53.2c0 .4-.2.7-.7.7h-24.9c-.4 0-.7-.2-.7-.7V0H77.9c-16.5 0-30 13.5-30 30v243c0 16.6 13.4 30 30 30zm-16-273c0-8.8 7.2-16 16-16h94.4v39.2c0 8.2 6.4 14.7 14.7 14.7h24.9c8.2 0 14.7-6.4 14.7-14.7V14H321c8.8 0 16 7.2 16 16v243c0 8.8-7.2 16-16 16H78c-8.8 0-16-7.2-16-16V30z"/>
    <path d="M544.1 215.2c2 0 4-.6 5.7-2.1 1.5-1.4 6-5.5 6-5.5v37.7c0 4.6 3.8 8.4 8.4 8.4s8.4-3.8 8.4-8.4v-37.7s4.4 4.1 6 5.5c1.7 1.4 3.7 2.1 5.7 2.1 2.3 0 4.6-.9 6.3-2.8 3.1-3.5 2.8-8.7-.6-12 0 0-12.9-11.5-19.2-17.3-1.8-1.7-4-3.1-6.6-3.1-2.8 0-4.8 1.4-6.6 3.1-6.3 5.8-19.2 17.3-19.2 17.3-3.5 3.2-3.7 8.4-.6 12 1.7 1.9 4 2.8 6.3 2.8z"/>
    <path d="M621.9 215.2c2 0 4-.6 5.7-2.1 1.5-1.4 6-5.5 6-5.5v37.7c0 4.6 3.8 8.4 8.4 8.4s8.4-3.8 8.4-8.4v-37.7s4.4 4.1 6 5.5c1.7 1.4 3.7 2.1 5.7 2.1 2.3 0 4.6-.9 6.3-2.8 3.2-3.5 2.9-8.7-.6-12 0 0-12.9-11.5-19.2-17.3-1.8-1.7-4-3.1-6.6-3.1-2.8 0-4.8 1.4-6.6 3.1-6.3 5.8-19.2 17.3-19.2 17.3-3.5 3.2-3.7 8.4-.6 12 1.7 1.9 4 2.8 6.3 2.8z"/>
    <path d="M176.9 215.2c2 0 4-.6 5.7-2.1 1.5-1.4 6-5.5 6-5.5v37.7c0 4.6 3.8 8.4 8.4 8.4s8.4-3.8 8.4-8.4v-37.7s4.4 4.1 6 5.5c1.7 1.4 3.7 2.1 5.7 2.1 2.3 0 4.6-.9 6.3-2.8 3.2-3.5 2.9-8.7-.6-12 0 0-12.9-11.5-19.2-17.3-1.8-1.7-4-3.1-6.6-3.1-2.8 0-4.8 1.4-6.6 3.1-6.3 5.8-19.2 17.3-19.2 17.3-3.5 3.2-3.7 8.4-.6 12 1.7 1.9 4 2.8 6.3 2.8z"/>
    <path d="M254.9 215.2c2 0 4-.6 5.7-2.1 1.5-1.4 6-5.5 6-5.5v37.7c0 4.6 3.8 8.4 8.4 8.4s8.4-3.8 8.4-8.4v-37.7s4.4 4.1 6 5.5c1.7 1.4 3.7 2.1 5.7 2.1 2.3 0 4.6-.9 6.3-2.8 3.1-3.5 2.8-8.7-.6-12 0 0-12.9-11.5-19.2-17.3-1.8-1.7-4-3.1-6.6-3.1-2.8 0-4.8 1.4-6.6 3.1-6.3 5.8-19.2 17.3-19.2 17.3-3.5 3.2-3.7 8.4-.6 12 1.7 1.9 4 2.8 6.3 2.8z"/>
</symbol><symbol id="icon-prev" viewBox="0 0 477.175 477.175">
    <path d="M145.188 238.575l215.5-215.5c5.3-5.3 5.3-13.8 0-19.1s-13.8-5.3-19.1 0l-225.1 225.1c-5.3 5.3-5.3 13.8 0 19.1l225.1 225c2.6 2.6 6.1 4 9.5 4s6.9-1.3 9.5-4c5.3-5.3 5.3-13.8 0-19.1l-215.4-215.5z"/>
</symbol></svg>